<svg xmlns="http://www.w3.org/2000/svg" width="150" height="150" viewBox="0 0 32 32"><g fill="#93a"><path d="M20.7 3.7a2.5 2.5 0 0 0-3.6 0l-1.4 1.4a2.5 2.5 0 0 0-.3 3.1L1.8 13.7a3 3 0 0 0-1 4.8l12.8 12.6a3 3 0 0 0 2 .9h.7a3 3 0 0 0 2.2-1.9L24 16.7a2.5 2.5 0 0 0 3-.3l1.5-1.4a2.5 2.5 0 0 0 0-3.5l-7.7-7.8zm-4 25.7a1 1 0 0 1-1.7.3L2.3 17.1a1 1 0 0 1 .3-1.6L8.8 13c4.2 1.4 8.4 0 12.6 4.5l-4.7 11.9zM27 13.6L25.6 15c-.2.2-.5.2-.7 0L23 13.2l-1.4 3.6v-.3c-3-3-6-3.4-8.7-3.7l-2.6-.4L18.9 9 17 7.3a.5.5 0 0 1 0-.7L18.6 5h.7l7.7 8c.2.2.2.5 0 .7z"/><path d="M16.5 21a2.5 2.5 0 1 0 0-5 2.5 2.5 0 0 0 0 5zm0-4a1.5 1.5 0 1 1 0 3 1.5 1.5 0 0 1 0-3zm13-17a2.5 2.5 0 1 0 0 5 2.5 2.5 0 0 0 0-5zm0 4a1.5 1.5 0 1 1 0-3 1.5 1.5 0 0 1 0 3zM8 17a2 2 0 1 0 4 0 2 2 0 0 0-4 0zm2-1a1 1 0 1 1 0 2 1 1 0 0 1 0-2z"/><circle cx="13" cy="23" r="1"/><circle cx="29" cy="8" r="1"/></g></svg>
